<svg width="1024" height="1024" viewBox="0 0 1024 1024" fill="none" xmlns="http://www.w3.org/2000/svg">
  <rect width="1024" height="1024" fill="#F6F6F4"/>

  <g fill="#1A1A1A">
    <polygon points="398,172 520,92 758,252 758,410 686,458 686,304 520,192 398,274"/>
    <polygon points="182,512 296,594 296,774 450,882 450,970 182,804"/>
    <polygon points="474,970 474,846 634,676 758,704 596,878"/>
    <polygon points="686,304 758,252 758,410 686,458 824,566 684,668 554,640 628,582 628,524 578,480 590,404 626,354"/>
  </g>

  <path
    d="M568 292C624 280 661 311 666 365C669 399 661 432 647 460C633 488 630 522 644 544C657 564 663 587 649 603C635 619 635 639 651 658C669 680 668 714 649 735C628 759 594 770 554 769C517 768 483 756 449 744C429 737 408 743 392 758L342 809L306 771L403 672C444 630 460 582 460 523V388C460 342 504 306 568 292Z"
    fill="#FBFBFB"
  />

  <g fill="none" stroke="#B8B8B8" stroke-width="10" stroke-linecap="round" stroke-linejoin="round">
    <path d="M438 336L516 392V542L420 640V754"/>
    <path d="M374 424L430 480V560L392 602H328L286 548"/>
    <path d="M324 612H266L232 646"/>
  </g>

  <g fill="#B8B8B8">
    <rect x="364" y="414" width="22" height="22" transform="rotate(45 364 414)"/>
    <rect x="310" y="532" width="26" height="26" transform="rotate(45 310 532)"/>
    <rect x="222" y="632" width="20" height="20" transform="rotate(45 222 632)"/>
    <circle cx="420" cy="754" r="12"/>
  </g>

  <path d="M590 492C612 476 640 476 662 488" stroke="#B8B8B8" stroke-width="10" stroke-linecap="round"/>
  <path d="M596 522C612 534 630 538 646 534C638 545 624 551 608 549L596 522Z" fill="#B8B8B8"/>
</svg>
